<?xml version="1.0" standalone="no"?>
<!DOCTYPE svg PUBLIC "-//W3C//DTD SVG 20010904//EN"
 "http://www.w3.org/TR/2001/REC-SVG-20010904/DTD/svg10.dtd">
<svg version="1.0" xmlns="http://www.w3.org/2000/svg"
 width="500.000000pt" height="500.000000pt" viewBox="0 0 500.000000 500.000000"
 preserveAspectRatio="xMidYMid meet">

<g transform="translate(0.000000,500.000000) scale(0.100000,-0.100000)"
fill="#000000" stroke="none">
<path d="M4279 4545 c-3 -2 -57 -23 -119 -45 -103 -36 -120 -40 -175 -34 -33
4 -78 15 -100 26 -95 46 -120 49 -342 38 -199 -10 -325 -28 -345 -48 -14 -14
-1 -32 25 -33 18 0 16 -3 -11 -15 -23 -10 -32 -20 -30 -32 2 -9 9 -16 15 -15
57 12 96 14 83 4 -8 -6 -26 -11 -40 -11 -30 0 -72 -20 -78 -37 -2 -8 5 -13 16
-13 11 0 25 -6 31 -14 8 -9 25 -12 58 -8 44 5 46 4 40 -19 -13 -54 -38 -215
-50 -321 l-13 -113 -163 -2 c-89 -1 -169 -4 -177 -7 -20 -8 -17 -24 6 -31 24
-8 17 -25 -11 -25 -12 0 -19 -7 -19 -20 0 -17 7 -20 53 -22 28 -1 61 -1 72 0
11 1 67 -2 125 -6 l105 -7 -184 -5 c-197 -5 -224 -13 -155 -46 31 -15 65 -18
187 -19 l148 0 -1 -380 c-1 -390 -8 -519 -37 -615 -15 -52 -71 -264 -114 -434
-11 -43 -18 -84 -15 -92 8 -20 33 -6 45 24 8 22 9 20 4 -17 -5 -38 -4 -43 12
-40 21 5 53 86 89 229 14 52 41 157 60 232 57 219 68 330 76 728 l7 355 -3
-415 c-2 -369 -5 -426 -23 -510 -11 -52 -26 -113 -34 -135 -8 -22 -22 -74 -31
-115 -14 -65 -47 -187 -77 -286 -14 -46 -11 -64 10 -64 12 0 23 12 31 33 6 17
20 55 30 82 10 28 29 97 41 155 12 58 26 113 31 123 18 34 59 253 73 391 10
90 15 245 15 446 l0 309 323 3 c177 2 330 7 340 12 24 11 21 33 -5 40 -13 3
-167 7 -343 8 l-320 1 330 7 c224 4 337 10 352 18 31 17 19 42 -21 42 -50 0
-76 11 -76 31 0 18 -13 19 -283 19 -156 0 -286 2 -288 4 -9 10 11 227 33 353
19 113 26 133 43 137 11 3 79 6 151 6 130 0 131 0 203 -36 62 -30 85 -36 145
-38 39 0 103 7 141 16 102 24 260 90 260 108 0 17 -40 20 -90 6 -48 -12 -19 7
43 29 44 15 58 25 60 43 4 25 -16 29 -51 11 -16 -9 -22 -9 -25 0 -2 6 -13 11
-24 11 -17 0 -18 3 -8 15 18 21 -11 50 -31 30z m-806 -62 c-7 -2 -19 -2 -25 0
-7 3 -2 5 12 5 14 0 19 -2 13 -5z m-90 -10 c-7 -2 -19 -2 -25 0 -7 3 -2 5 12
5 14 0 19 -2 13 -5z m-106 -19 c-3 -3 -12 -4 -19 -1 -8 3 -5 6 6 6 11 1 17 -2
13 -5z m475 -32 c9 -4 -60 -8 -155 -8 -117 -1 -150 1 -102 6 95 9 236 10 257
2z m313 -61 c-11 -11 -31 -14 -60 -11 -17 2 -17 3 5 10 36 11 66 12 55 1z
m-629 -36 c-11 -30 -45 -251 -56 -359 -5 -60 -13 -112 -16 -115 -12 -11 7 222
27 344 24 141 25 145 40 145 6 0 8 -7 5 -15z"/>
<path d="M2229 4500 c-38 -7 -132 -56 -187 -98 -38 -29 -67 -81 -77 -137 -4
-22 -12 -46 -18 -53 -14 -17 -14 -129 -1 -275 10 -113 13 -122 64 -224 65
-131 122 -191 236 -251 96 -49 249 -109 318 -124 69 -15 130 -76 145 -147 23
-108 8 -398 -26 -506 -32 -100 -60 -143 -111 -168 -70 -36 -96 -39 -351 -46
-243 -6 -274 -13 -214 -45 l28 -15 -27 -1 c-32 0 -44 -16 -27 -36 10 -12 44
-14 228 -9 119 3 234 8 256 10 35 4 38 3 20 -7 -14 -9 -97 -14 -275 -18 -209
-4 -255 -8 -255 -19 0 -8 7 -17 15 -21 63 -31 71 -32 301 -27 215 4 241 6 317
30 117 36 155 63 196 145 78 156 111 329 111 597 0 105 -4 207 -8 229 -14 65
-94 140 -211 197 -55 27 -107 49 -116 49 -29 0 -154 46 -211 78 -68 39 -98 70
-141 147 -58 103 -69 142 -79 274 -4 68 -11 132 -15 143 -8 26 56 87 131 123
48 24 64 27 113 22 100 -11 254 -46 272 -62 9 -8 24 -15 33 -15 9 0 17 -4 17
-10 0 -5 9 -10 20 -10 25 0 26 26 3 52 -11 12 -12 18 -4 18 7 0 26 -14 42 -31
16 -17 33 -28 39 -24 18 11 11 41 -15 65 -26 24 -33 50 -14 50 6 0 13 -9 16
-20 7 -26 43 -27 43 0 0 20 -47 70 -66 70 -6 0 -36 13 -66 29 -89 48 -353 90
-449 71z m34 -47 c-7 -2 -19 -2 -25 0 -7 3 -2 5 12 5 14 0 19 -2 13 -5z m190
-72 c4 -4 -23 -4 -59 1 -37 4 -70 10 -73 14 -8 9 122 -6 132 -15z m-214 -841
c13 -11 22 -23 19 -25 -6 -6 -78 46 -78 57 0 10 26 -4 59 -32z m588 -228 c9
-12 14 -25 11 -27 -5 -6 -68 79 -68 92 0 8 28 -23 57 -65z m12 -309 c1 -158
-24 -336 -54 -393 -17 -30 -18 -20 -4 40 27 117 39 229 40 390 1 103 5 163 9
145 4 -16 8 -98 9 -182z"/>
<path d="M425 4440 c-56 -4 -70 -8 -73 -22 -2 -11 3 -18 12 -18 25 0 18 -17
-10 -24 -16 -4 -24 -12 -22 -23 3 -15 57 -17 573 -20 313 -2 572 -6 574 -9 2
-2 -241 -4 -540 -4 -299 0 -561 -3 -581 -6 -45 -8 -50 -30 -10 -45 19 -8 198
-11 583 -9 516 1 556 0 570 -16 24 -29 22 -155 -6 -364 -21 -156 -28 -249 -31
-465 -6 -286 -21 -416 -79 -645 -51 -201 -66 -290 -75 -425 -10 -148 -16 -185
-34 -197 -28 -19 -114 -6 -240 36 -72 25 -158 51 -191 59 -83 21 -241 40 -271
33 -34 -9 -30 -34 9 -45 28 -8 29 -9 7 -10 -33 -2 -54 -15 -48 -32 3 -9 36
-18 94 -26 l89 -12 -90 5 c-49 2 -96 0 -104 -5 -19 -12 -6 -41 18 -41 11 0 23
-4 26 -10 3 -5 23 -10 43 -10 87 0 325 -55 441 -102 65 -27 89 -31 171 -32 93
-1 183 17 199 39 19 27 54 255 65 435 3 47 17 132 31 190 99 404 115 520 125
880 6 237 13 352 30 465 27 182 25 319 -5 380 -17 34 -26 41 -58 46 -20 3 -48
15 -60 27 -22 21 -29 21 -542 24 -286 2 -551 1 -590 -2z m1205 -111 c0 -5 -7
-9 -15 -9 -8 0 -15 7 -15 15 0 9 6 12 15 9 8 -4 15 -10 15 -15z m4 -111 c11
-44 6 -182 -14 -332 -11 -83 -24 -209 -29 -281 l-10 -130 4 180 c2 99 9 209
16 245 6 36 12 127 13 202 1 132 7 165 20 116z m-84 -1244 c-27 -140 -75 -351
-99 -439 l-9 -30 -1 30 c-1 17 12 84 28 150 39 162 78 354 93 467 13 90 13 91
16 37 2 -32 -10 -121 -28 -215z m-114 -641 c-18 -160 -30 -233 -38 -233 -5 0
-6 15 -3 33 5 30 35 246 35 254 0 2 3 3 6 3 4 0 3 -26 0 -57z m-168 -292 c20
-12 -31 -23 -65 -14 l-28 7 35 7 c19 3 37 7 40 8 3 0 11 -3 18 -8z m132 -6 c0
-8 -7 -15 -15 -15 -16 0 -20 12 -8 23 11 12 23 8 23 -8z"/>
<path d="M80 1741 c0 -8 -13 -9 -40 -5 l-40 7 0 -196 c0 -168 2 -196 16 -201
26 -10 36 -7 30 9 -3 8 -1 15 4 15 6 0 10 -7 10 -15 0 -12 9 -13 45 -8 36 5
45 3 45 -9 0 -13 17 -16 93 -17 50 -1 106 -3 122 -6 17 -2 124 -5 238 -6 285
-2 267 7 357 -173 39 -78 77 -152 85 -166 7 -14 21 -43 30 -65 37 -88 58 -126
79 -142 12 -10 37 -44 55 -77 19 -32 42 -61 51 -63 10 -3 23 -16 29 -29 6 -13
29 -44 51 -68 22 -24 40 -48 40 -54 0 -6 -12 -25 -27 -43 -16 -18 -22 -29 -14
-25 10 7 11 3 6 -15 -30 -93 -56 -203 -60 -259 -5 -63 -5 -64 10 -33 8 17 17
57 20 90 6 67 38 191 60 234 12 23 22 29 48 29 18 0 38 -5 43 -10 25 -25 174
-24 159 0 -3 6 -2 10 4 10 6 0 8 7 5 15 -4 9 0 15 9 15 8 0 17 -5 19 -12 4
-12 31 10 58 50 11 17 24 21 60 21 67 -2 86 7 120 57 37 52 51 59 20 9 -24
-39 -15 -45 21 -16 29 23 73 106 64 121 -4 6 -1 17 5 25 6 8 19 29 29 48 23
45 84 117 93 111 5 -3 8 -16 8 -30 0 -13 5 -24 10 -24 6 0 10 11 10 25 0 14 5
25 10 25 6 0 10 -8 10 -18 0 -10 3 -22 7 -26 5 -4 6 -34 5 -65 -3 -49 1 -68
27 -119 30 -60 41 -109 21 -97 -5 3 -10 15 -10 26 0 10 -4 19 -10 19 -13 0
-13 -47 -1 -55 5 -3 12 -18 16 -34 3 -16 13 -35 21 -42 8 -7 11 -15 7 -18 -12
-9 -57 -80 -77 -121 -14 -30 -14 -32 -1 -15 9 11 29 41 45 68 17 26 41 52 54
57 13 5 42 31 65 58 23 27 61 64 84 82 36 28 33 23 -19 -31 -59 -62 -94 -106
-94 -120 0 -10 51 -22 86 -20 54 4 61 -19 30 -102 -47 -123 -53 -134 -110
-177 -31 -23 -54 -46 -51 -50 2 -4 -7 -18 -21 -31 -14 -13 -30 -32 -35 -41
-17 -31 36 -23 56 8 9 15 12 23 6 20 -29 -18 -6 16 39 58 52 48 77 62 44 24
-34 -40 -55 -86 -34 -73 20 12 10 -6 -16 -30 l-27 -25 50 0 c40 0 54 5 73 25
13 14 27 25 30 25 4 0 5 -11 2 -25 -4 -22 -1 -25 27 -25 17 0 31 4 31 8 0 5 7
17 15 28 15 18 15 18 9 -8 -3 -16 -2 -28 4 -28 5 0 12 14 16 32 3 17 12 39 20
47 7 9 16 28 20 43 5 23 4 27 -11 21 -10 -3 -24 -11 -32 -17 -23 -18 -6 37 42
134 34 69 50 89 82 108 22 13 32 21 23 18 -10 -3 -26 -9 -35 -12 -10 -3 4 15
32 40 46 43 75 60 59 35 -5 -8 -1 -8 14 0 23 12 37 41 20 41 -15 0 0 15 15 15
7 0 11 8 9 18 -2 9 3 17 11 17 8 0 18 7 21 15 4 13 10 14 26 5 18 -10 19 -9
10 15 -8 20 -7 30 4 40 7 8 17 11 21 7 4 -4 2 3 -4 16 -10 20 -10 27 3 41 9
10 16 23 16 29 0 16 23 15 39 -1 11 -10 12 -8 7 10 -5 15 0 32 12 50 11 15 27
40 36 56 9 15 24 27 33 27 14 0 14 -2 -3 -15 -11 -9 -14 -14 -6 -15 16 0 82
70 82 88 0 6 5 12 10 12 6 0 10 9 10 20 0 11 7 23 15 26 8 4 15 17 15 29 0 13
5 27 10 30 5 3 10 15 10 26 0 10 6 18 12 17 7 -2 14 7 16 18 2 12 17 34 33 50
l30 29 39 -45 c22 -25 63 -83 92 -128 85 -134 191 -273 250 -327 69 -63 124
-109 132 -112 4 -1 35 -16 71 -34 77 -38 77 -39 -25 -130 -71 -63 -196 -219
-176 -219 3 0 35 38 71 85 89 114 225 237 225 204 0 -8 4 -8 14 0 11 10 20 10
37 0 13 -6 60 -16 106 -20 67 -7 91 -6 123 7 22 9 59 17 84 17 33 2 49 8 65
27 17 21 20 21 14 5 -6 -18 -5 -19 12 -5 11 9 16 10 11 3 -5 -9 0 -13 14 -13
18 0 20 -4 15 -37 l-5 -38 13 40 c9 30 18 40 34 41 29 2 69 28 139 93 33 29
77 70 99 90 56 50 138 149 213 254 l62 87 0 316 c0 188 -4 323 -10 334 -6 11
-17 16 -29 13 -10 -3 -28 0 -40 6 -16 9 -31 7 -71 -8 -58 -22 -120 -66 -120
-85 0 -7 -11 -23 -25 -36 -18 -17 -22 -26 -13 -31 9 -6 7 -14 -8 -31 -11 -13
-29 -40 -39 -60 -17 -33 -61 -66 -72 -54 -2 2 -19 0 -36 -6 -18 -5 -63 -11
-101 -14 -84 -6 -130 -32 -94 -55 10 -7 9 -9 -4 -9 -9 0 -19 -6 -22 -12 -5
-10 -7 -10 -12 0 -3 6 -10 10 -15 6 -5 -3 -9 1 -9 8 -1 7 -9 3 -20 -11 -12
-14 -20 -18 -20 -10 0 24 -20 -13 -20 -38 0 -14 -5 -21 -13 -17 -9 3 -19 -13
-29 -48 -13 -41 -38 -157 -38 -175 0 -2 -5 -3 -11 -3 -5 0 -7 5 -3 12 4 7 3 8
-4 4 -7 -4 -12 -14 -12 -23 0 -9 -6 -13 -15 -9 -8 3 -21 -4 -30 -17 -8 -12
-19 -20 -23 -17 -4 3 -8 -5 -10 -18 -3 -17 -8 -22 -20 -17 -9 3 -37 13 -63 21
-32 11 -46 21 -45 32 1 11 -8 18 -24 20 -39 6 -62 31 -55 63 4 16 1 32 -8 41
-8 7 -23 34 -34 59 -79 179 -298 405 -446 461 -101 38 -243 21 -378 -48 -88
-44 -125 -77 -174 -157 -34 -56 -50 -70 -109 -102 -51 -28 -70 -34 -76 -25 -6
9 -10 8 -18 -5 -13 -24 -32 -10 -32 23 0 17 -8 32 -21 41 -17 10 -19 15 -8 21
8 5 19 4 28 -3 8 -7 2 10 -13 37 -21 37 -25 48 -12 43 19 -7 21 6 4 21 -15 11
-58 20 -135 27 -54 5 -109 -3 -200 -31 -47 -15 -56 -15 -99 0 -77 26 -100 22
-163 -31 -31 -26 -58 -50 -61 -54 -22 -26 -98 -68 -135 -73 -50 -8 -75 -34
-75 -79 0 -17 -10 -38 -26 -54 -21 -20 -31 -24 -57 -19 -18 4 -61 9 -97 12
-36 3 -77 10 -91 15 -27 11 -49 56 -49 103 0 21 -4 27 -15 22 -10 -3 -18 1
-22 12 -3 9 -13 25 -21 35 -15 16 -14 17 2 11 16 -6 16 -4 2 31 -9 20 -14 41
-11 45 8 13 -14 62 -24 56 -15 -9 -40 4 -35 19 3 7 -5 15 -19 19 -24 6 -86 48
-123 85 -29 29 -168 97 -239 117 -49 14 -110 17 -325 19 -146 1 -302 5 -347
10 -60 5 -83 4 -83 -4z m4117 -633 c-3 -7 -5 -2 -5 12 0 14 2 19 5 13 2 -7 2
-19 0 -25z m-7 -50 c0 -7 -4 -19 -9 -26 -7 -11 -10 -10 -15 3 -10 26 -7 35 9
35 8 0 15 -6 15 -12z m-1960 -269 c0 -5 -4 -9 -10 -9 -5 0 -10 7 -10 16 0 8 5
12 10 9 6 -3 10 -10 10 -16z m-814 -327 c-22 -5 -30 3 -21 18 5 8 11 7 22 -2
15 -12 14 -13 -1 -16z m151 -28 c-3 -3 -12 -4 -19 -1 -8 3 -5 6 6 6 11 1 17
-2 13 -5z m979 -87 c-3 -12 -9 -27 -13 -32 -15 -20 -94 -77 -99 -72 -12 11 29
113 55 138 26 26 26 26 44 7 12 -12 17 -27 13 -41z m62 15 c2 -6 -11 -18 -28
-27 l-31 -16 16 31 c16 30 35 36 43 12z m-27 -60 c-13 -25 -40 -46 -48 -38 -7
7 36 56 49 56 5 0 4 -8 -1 -18z m-81 -62 c0 -5 -6 -10 -13 -10 -8 0 -24 -11
-37 -25 -13 -14 -28 -25 -34 -25 -5 0 5 16 24 35 33 34 60 45 60 25z m50 5 c0
-3 -9 -24 -19 -48 -11 -23 -21 -51 -23 -61 -2 -11 -9 -21 -16 -24 -11 -3 -12
0 -3 16 6 10 8 21 6 24 -6 6 14 68 28 86 9 12 27 17 27 7z m-76 -86 c-19 -50
-75 -111 -82 -89 -3 7 5 22 18 32 17 14 19 18 6 18 -9 0 -16 4 -16 9 0 11 80
84 86 78 3 -2 -3 -24 -12 -48z m66 -69 c0 -5 -4 -10 -10 -10 -5 0 -10 5 -10
10 0 6 5 10 10 10 6 0 10 -4 10 -10z m-59 -47 c-10 -17 -10 -16 -11 3 0 23 13
41 18 25 2 -6 -1 -18 -7 -28z m-211 -7 c0 -2 -8 -10 -17 -17 -16 -13 -17 -12
-4 4 13 16 21 21 21 13z"/>
<path d="M55 1320 c-3 -5 -2 -10 4 -10 5 0 13 5 16 10 3 6 2 10 -4 10 -5 0
-13 -4 -16 -10z"/>
<path d="M886 1215 c4 -22 10 -47 15 -55 5 -9 6 2 2 25 -3 22 -10 47 -15 55
-5 9 -6 0 -2 -25z"/>
<path d="M2171 714 c0 -27 4 -58 9 -69 4 -12 6 7 3 45 -7 79 -13 92 -12 24z"/>
<path d="M2191 524 c0 -12 7 -28 17 -35 15 -12 16 -12 6 1 -7 8 -14 24 -17 35
-4 19 -5 19 -6 -1z"/>
<path d="M428 377 c-30 -34 -65 -80 -76 -102 -32 -59 -62 -92 -71 -77 -11 18
-36 -67 -45 -149 -1 -14 -6 -31 -10 -37 -5 -9 5 -12 33 -12 22 0 43 4 46 10 3
5 11 10 16 10 6 0 7 -5 4 -10 -3 -6 4 -10 17 -10 16 0 19 3 10 8 -15 10 -5 42
13 42 16 0 40 28 32 37 -4 3 -13 0 -22 -7 -9 -7 -18 -11 -21 -8 -5 6 74 65
114 87 38 20 18 -23 -23 -48 -14 -9 -15 -11 -3 -7 15 4 16 2 6 -22 -7 -15 -15
-31 -18 -37 -19 -29 -19 -45 0 -45 11 0 20 7 20 15 0 21 80 169 96 178 8 5 12
12 9 17 -3 4 18 31 45 60 28 29 50 58 50 65 0 8 12 28 26 45 15 17 24 33 21
36 -10 10 -146 -147 -176 -204 -11 -20 -122 -86 -146 -87 -5 0 -30 -19 -55
-42 -24 -23 -46 -40 -48 -38 -9 9 96 108 143 136 28 16 43 29 35 29 -8 0 -28
-9 -45 -20 -50 -33 -60 -22 -23 25 12 16 23 36 23 45 1 10 29 55 64 101 58 79
36 63 -36 -25 -53 -65 -48 -34 6 38 28 36 49 66 47 66 -1 0 -27 -28 -58 -63z
m203 -55 c-5 -9 -19 -26 -32 -37 -19 -16 -18 -13 5 18 30 39 43 49 27 19z
m-249 -64 c-7 -7 -12 -8 -12 -2 0 14 12 26 19 19 2 -3 -1 -11 -7 -17z m-19
-42 c-5 -22 -33 -46 -33 -28 0 8 29 52 34 52 2 0 1 -11 -1 -24z m-77 -77 c-9
-20 -15 -27 -16 -16 0 20 19 61 26 54 2 -2 -2 -19 -10 -38z"/>
<path d="M3615 408 c-70 -42 -117 -81 -212 -170 -45 -43 -86 -78 -92 -78 -5 0
-39 -23 -75 -50 -36 -28 -68 -50 -70 -50 -3 0 -3 8 0 18 3 9 -6 -3 -20 -28
-36 -66 -6 -67 53 -1 25 28 63 62 84 76 42 28 41 23 -18 -59 -42 -57 -43 -66
-10 -66 23 0 30 10 26 33 -1 5 2 6 7 3 9 -5 52 38 52 52 -1 4 -10 -4 -21 -17
-34 -41 -30 -17 6 36 19 28 47 61 62 73 15 12 28 26 28 30 0 26 191 195 212
188 4 -2 21 7 37 20 41 32 10 26 -49 -10z"/>
<path d="M4740 415 c-7 -8 -25 -15 -41 -15 -29 0 -147 -43 -219 -80 -29 -15
-40 -16 -43 -7 -4 8 -6 7 -6 -3 -1 -8 -37 -38 -80 -67 -43 -28 -81 -60 -83
-71 -5 -16 10 -8 62 31 73 56 198 128 186 108 -5 -7 -26 -25 -48 -41 -42 -30
-108 -115 -108 -138 0 -8 12 0 26 17 28 34 44 39 44 16 0 -8 -18 -27 -40 -41
-22 -15 -40 -33 -40 -40 0 -17 10 -17 33 0 13 10 14 15 5 18 -7 3 1 12 20 23
29 18 39 44 33 87 0 4 27 32 61 63 60 54 135 97 191 111 26 6 27 5 17 -22 -8
-25 -8 -26 3 -10 6 11 19 27 27 36 14 16 24 40 16 40 -2 0 -9 -7 -16 -15z"/>
<path d="M1563 393 c9 -2 23 -2 30 0 6 3 -1 5 -18 5 -16 0 -22 -2 -12 -5z"/>
<path d="M1255 340 c-21 -21 -42 -37 -47 -34 -4 3 -8 0 -8 -6 0 -5 -27 -44
-61 -84 -58 -72 -93 -96 -103 -72 -3 8 -5 7 -5 -1 -1 -12 -81 -59 -81 -48 0 3
9 24 20 45 28 55 18 50 -16 -7 -15 -27 -41 -61 -58 -76 -28 -25 -29 -27 -8
-22 22 6 23 5 13 -14 -8 -14 -8 -21 -2 -21 6 0 13 11 17 25 6 25 51 66 86 78
15 5 16 1 11 -26 -3 -18 -10 -40 -14 -49 -11 -21 -11 -28 -1 -28 5 0 29 33 55
73 62 98 127 178 138 171 5 -3 9 2 9 11 0 9 23 41 51 71 29 30 50 54 47 54 -2
0 -21 -18 -43 -40z m-185 -213 c0 -2 -12 -19 -26 -38 l-26 -34 7 30 c3 16 12
33 18 37 12 8 27 10 27 5z"/>
<path d="M3613 368 c-34 -44 -124 -253 -122 -286 0 -9 11 13 24 50 13 37 30
80 39 95 28 51 76 153 72 153 -2 0 -8 -6 -13 -12z"/>
<path d="M3104 306 c-24 -55 -37 -71 -88 -107 -108 -76 -227 -190 -207 -197 7
-2 46 29 87 69 40 40 76 70 79 67 3 -3 -6 -13 -21 -23 -18 -11 -23 -20 -15
-24 8 -5 4 -14 -11 -26 -13 -11 -17 -13 -10 -5 30 34 8 30 -28 -5 -22 -21 -40
-43 -40 -47 0 -17 38 -7 54 14 l17 23 -6 -22 c-9 -35 3 -27 19 11 12 30 103
112 113 102 2 -2 0 -14 -5 -27 -5 -13 -12 -43 -16 -67 -6 -38 -4 -43 11 -40
14 2 18 14 19 48 3 79 29 176 54 200 9 8 10 11 3 6 -19 -12 -16 11 7 63 11 24
19 46 16 48 -2 2 -16 -25 -32 -61z m-45 -123 c-9 -25 -86 -93 -105 -93 -4 0 5
14 22 32 16 17 22 28 14 24 -8 -4 3 9 25 28 48 43 57 45 44 9z"/>
<path d="M3827 314 c-26 -53 -37 -98 -18 -78 11 11 53 125 48 130 -2 2 -15
-21 -30 -52z"/>
<path d="M1632 325 c-7 -14 -12 -34 -12 -43 1 -9 7 1 15 23 16 45 14 58 -3 20z"/>
<path d="M2883 327 c-18 -12 -33 -28 -33 -35 0 -7 17 1 40 19 22 18 40 34 40
36 0 7 -17 0 -47 -20z"/>
<path d="M3192 303 c-29 -14 -51 -27 -49 -29 2 -3 33 9 68 26 35 16 57 30 49
29 -8 0 -39 -12 -68 -26z"/>
<path d="M4582 253 c-27 -32 -54 -68 -61 -80 -10 -19 -49 -47 -78 -56 -5 -1
-8 -20 -8 -43 0 -22 -6 -48 -14 -57 -12 -15 -11 -17 11 -17 21 0 29 11 56 70
33 73 46 89 37 43 -5 -25 -4 -24 10 6 18 40 19 44 4 35 -7 -4 -10 -1 -7 7 3 8
11 13 17 11 7 -1 9 2 6 8 -4 7 14 38 39 71 25 32 44 59 42 59 -2 0 -26 -26
-54 -57z m-113 -175 c-8 -14 -14 -18 -17 -10 -4 13 17 46 25 38 3 -2 -1 -15
-8 -28z"/>
<path d="M4662 265 c-12 -25 -22 -52 -22 -60 0 -7 -12 -28 -26 -47 l-26 -33
30 31 c26 28 79 141 69 150 -2 2 -13 -17 -25 -41z"/>
<path d="M1697 245 l-88 -54 6 32 7 32 -24 -31 c-59 -80 -124 -162 -152 -191
l-30 -33 25 0 c19 0 31 10 47 38 25 44 109 128 98 97 -9 -24 -9 -24 -6 -55 2
-24 2 -24 11 5 5 17 11 41 13 55 2 14 9 24 15 22 7 -1 10 2 7 7 -5 8 111 91
147 104 9 4 17 11 17 17 0 13 8 17 -93 -45z m-126 -88 c-13 -12 -20 -15 -16
-7 14 26 28 41 33 35 3 -3 -5 -16 -17 -28z"/>
<path d="M2318 293 c7 -3 16 -2 19 1 4 3 -2 6 -13 5 -11 0 -14 -3 -6 -6z"/>
<path d="M1922 214 c-44 -72 -162 -210 -162 -190 0 5 7 18 17 28 9 11 11 18 5
18 -7 0 -11 3 -11 8 8 49 -16 49 -26 -1 -4 -17 -19 -42 -33 -54 l-27 -23 45 1
c40 0 48 4 75 39 44 57 57 58 40 4 l-13 -44 31 0 c18 0 41 9 55 23 17 15 23
17 20 7 -1 -9 1 -17 7 -18 5 -2 13 11 16 29 4 17 26 50 49 74 28 29 38 44 28
47 -7 3 -23 -2 -35 -10 -13 -8 -23 -11 -23 -6 0 5 -7 -1 -15 -13 -8 -12 -33
-36 -55 -53 -47 -37 -53 -22 -15 34 13 20 20 36 14 36 -10 0 21 68 53 113 11
15 17 27 13 27 -3 0 -27 -34 -53 -76z m108 -57 c0 -2 -10 -12 -22 -23 l-23
-19 19 23 c18 21 26 27 26 19z m-80 -70 c0 -2 -15 -16 -32 -33 l-33 -29 29 33
c28 30 36 37 36 29z"/>
<path d="M2774 250 c-26 -21 -50 -38 -53 -37 -3 2 -22 -13 -41 -32 -19 -18
-29 -31 -22 -27 18 11 15 -1 -13 -42 -14 -20 -25 -42 -25 -49 0 -6 -14 -22
-32 -34 -19 -14 -26 -25 -19 -27 7 -2 26 9 43 24 25 24 29 25 19 7 -6 -12 -11
-24 -11 -27 0 -12 28 -6 33 7 4 9 6 9 6 0 2 -31 19 -9 25 31 4 27 16 52 31 66
14 13 25 29 25 37 0 7 20 33 44 58 24 25 40 48 36 50 -4 3 -13 -2 -20 -10 -7
-8 -18 -15 -24 -15 -6 0 0 9 14 19 13 11 28 17 32 15 3 -2 9 0 12 5 4 5 2 12
-3 15 -5 3 -30 -12 -57 -34z m-23 -57 c-16 -28 -38 -53 -45 -53 -14 0 -5 22
19 45 28 29 40 32 26 8z m-77 -86 c-3 -8 -12 -18 -20 -21 -11 -4 -11 0 2 20
18 26 28 27 18 1z"/>
<path d="M2128 231 c-20 -28 -32 -51 -27 -53 4 -2 -3 -38 -16 -81 -29 -90 -30
-97 -12 -97 9 0 23 35 38 98 24 96 25 97 73 130 49 32 53 44 6 17 -35 -20 -41
-18 -30 10 5 14 8 25 7 25 -1 0 -19 -22 -39 -49z"/>
<path d="M2904 248 c-48 -53 -126 -167 -122 -180 2 -6 18 14 36 45 17 30 46
73 64 94 57 67 61 73 57 73 -3 0 -18 -15 -35 -32z"/>
<path d="M596 233 c-4 -5 -14 -21 -22 -38 -8 -16 -36 -66 -63 -110 -26 -44
-44 -82 -39 -84 12 -4 31 14 34 33 3 19 55 108 61 103 2 -3 -1 -24 -6 -48 -13
-54 -14 -82 -2 -75 4 3 11 29 14 59 3 29 13 71 23 93 9 21 16 42 16 47 -1 4 6
7 16 7 14 0 15 2 2 10 -18 12 -24 12 -34 3z"/>
<path d="M1364 208 l-19 -23 23 19 c12 11 22 21 22 23 0 8 -8 2 -26 -19z"/>
<path d="M4710 220 c-9 -6 -10 -10 -3 -10 6 0 15 5 18 10 8 12 4 12 -15 0z"/>
<path d="M210 209 c0 -5 5 -7 10 -4 6 3 10 8 10 11 0 2 -4 4 -10 4 -5 0 -10
-5 -10 -11z"/>
<path d="M3999 211 c-49 -10 -103 -43 -108 -67 -3 -18 -2 -18 21 3 27 25 81
50 129 58 18 3 35 8 38 11 6 6 -37 3 -80 -5z"/>
<path d="M4821 196 c-12 -13 -19 -26 -14 -29 5 -3 16 8 25 24 21 35 18 36 -11
5z"/>
<path d="M3781 173 c-6 -21 -11 -45 -11 -54 0 -8 -16 -31 -37 -50 -20 -18 -33
-27 -29 -19 4 8 -1 5 -10 -7 -20 -27 -34 -29 -35 -5 0 14 -2 14 -9 -3 -14 -33
-12 -36 30 -33 30 2 42 8 50 27 6 13 13 21 17 18 3 -4 0 -13 -7 -22 -7 -9 -10
-18 -7 -21 8 -9 48 16 42 26 -11 18 16 60 60 90 53 36 54 53 2 21 -19 -11 -38
-21 -42 -21 -4 0 -4 20 -1 45 9 55 1 59 -13 8z"/>
<path d="M4224 188 c-31 -36 -47 -58 -41 -58 3 0 20 18 37 40 34 43 36 55 4
18z"/>
<path d="M107 174 c-10 -13 -14 -24 -9 -24 13 0 35 27 30 39 -1 5 -11 -2 -21
-15z"/>
<path d="M1192 175 c0 -16 2 -22 5 -12 2 9 2 23 0 30 -3 6 -5 -1 -5 -18z"/>
<path d="M1987 193 c-4 -3 -7 -13 -7 -22 1 -13 3 -13 11 2 11 19 8 33 -4 20z"/>
<path d="M1414 158 l-29 -33 33 29 c30 28 37 36 29 36 -2 0 -16 -15 -33 -32z"/>
<path d="M675 121 c-9 -32 -15 -65 -13 -72 2 -7 12 17 22 55 21 85 15 97 -9
17z"/>
<path d="M2775 170 c-3 -6 1 -7 9 -4 18 7 21 14 7 14 -6 0 -13 -4 -16 -10z"/>
<path d="M20 149 l-25 -20 33 16 c17 8 32 18 32 20 0 10 -16 4 -40 -16z"/>
<path d="M1775 159 c-4 -6 -5 -12 -2 -15 2 -3 7 2 10 11 7 17 1 20 -8 4z"/>
<path d="M2613 152 c-7 -4 -9 -13 -5 -19 6 -9 11 -6 20 7 13 21 6 26 -15 12z"/>
<path d="M3629 138 c-12 -23 -12 -23 10 -4 23 21 26 26 11 26 -5 0 -15 -10
-21 -22z"/>
<path d="M4220 145 c-7 -9 -26 -23 -41 -30 -14 -8 -43 -37 -63 -65 -30 -42
-33 -50 -18 -50 25 0 147 131 140 151 -2 7 -9 5 -18 -6z"/>
<path d="M4761 124 c-23 -34 -62 -71 -111 -107 -25 -18 -25 -18 4 -2 26 16 28
16 23 1 -11 -28 18 -18 36 13 12 21 22 28 37 24 11 -3 18 -8 16 -12 -2 -3 0
-15 5 -26 7 -19 8 -19 10 3 3 42 13 62 31 62 7 0 7 -4 1 -13 -11 -13 -26 -67
-19 -67 5 0 56 105 56 115 0 5 -5 4 -12 -3 -22 -22 -39 -14 -33 16 4 22 2 20
-11 -10 -10 -23 -24 -38 -39 -40 -23 -5 -22 -4 7 34 17 21 29 40 27 42 -2 3
-15 -11 -28 -30z"/>
<path d="M4061 127 c-13 -21 -12 -21 5 -5 10 10 16 20 13 22 -3 3 -11 -5 -18
-17z"/>
<path d="M21 119 c-13 -11 -22 -21 -20 -24 3 -2 18 7 34 20 17 13 26 24 20 24
-5 0 -21 -9 -34 -20z"/>
<path d="M1185 93 c-3 -27 -10 -58 -15 -70 -9 -21 -7 -23 18 -23 15 0 36 7 46
15 11 8 29 15 39 15 17 0 18 -2 6 -16 -11 -14 -10 -15 11 -12 16 2 26 11 30
27 3 14 12 27 20 29 13 5 13 3 0 -13 -12 -16 -9 -15 16 3 18 12 42 26 55 31
19 7 15 8 -21 6 -25 -1 -74 -16 -110 -32 -51 -24 -66 -27 -68 -16 -2 8 5 24
15 36 16 19 16 20 1 8 -16 -12 -18 -10 -18 17 0 50 -18 46 -25 -5z"/>
<path d="M4295 129 c-11 -17 1 -21 15 -4 8 9 8 15 2 15 -6 0 -14 -5 -17 -11z"/>
<path d="M4534 90 c-37 -42 -52 -90 -29 -90 8 0 15 6 15 14 0 7 7 19 15 26 33
27 53 65 41 75 -8 7 -20 0 -42 -25z"/>
<path d="M1708 93 c-38 -43 -71 -93 -59 -93 6 0 17 13 25 29 9 16 27 43 42 60
32 38 27 41 -8 4z"/>
<path d="M3666 104 c-7 -19 -8 -49 -1 -42 7 7 17 58 11 58 -2 0 -7 -7 -10 -16z"/>
<path d="M4871 91 c-12 -16 -21 -38 -21 -48 0 -10 -6 -25 -12 -32 -11 -11 -10
-13 1 -9 7 2 19 21 26 42 7 20 21 46 31 57 9 10 12 19 6 19 -6 0 -20 -13 -31
-29z"/>
<path d="M4302 55 c-18 -32 -25 -55 -18 -55 14 0 41 44 50 83 10 41 1 33 -32
-28z"/>
<path d="M136 54 c-14 -26 -24 -49 -22 -51 2 -2 16 17 30 43 14 26 24 49 22
51 -2 2 -16 -17 -30 -43z"/>
<path d="M3594 73 c-26 -34 -39 -73 -26 -73 14 0 54 70 50 87 -2 10 -10 6 -24
-14z"/>
<path d="M3834 78 l-19 -23 23 19 c12 11 22 21 22 23 0 8 -8 2 -26 -19z"/>
<path d="M2240 75 c-8 -9 -8 -15 -2 -15 12 0 26 19 19 26 -2 2 -10 -2 -17 -11z"/>
<path d="M1072 51 c-13 -12 -21 -26 -17 -29 7 -8 48 33 44 44 -2 5 -14 -2 -27
-15z"/>
<path d="M4385 60 c-10 -11 -24 -20 -30 -20 -7 0 -15 -9 -18 -20 -3 -11 -2
-20 2 -20 11 0 75 69 69 75 -2 3 -13 -4 -23 -15z"/>
<path d="M183 34 c-17 -27 -19 -34 -7 -34 8 0 19 12 25 27 15 40 6 44 -18 7z"/>
<path d="M3996 39 c-17 -29 -15 -53 3 -33 8 9 24 64 18 64 -1 0 -11 -14 -21
-31z"/>
<path d="M2186 29 c-16 -16 -25 -29 -19 -29 11 0 58 48 52 54 -2 2 -17 -9 -33
-25z"/>
<path d="M4190 45 c0 -8 2 -15 4 -15 2 0 6 7 10 15 3 8 1 15 -4 15 -6 0 -10
-7 -10 -15z"/>
<path d="M760 30 c-9 -6 -10 -10 -3 -10 6 0 15 5 18 10 8 12 4 12 -15 0z"/>
<path d="M1577 26 c-4 -10 -5 -21 -2 -24 9 -9 17 6 13 25 -3 17 -4 17 -11 -1z"/>
<path d="M3447 26 c-4 -10 -1 -13 9 -9 7 3 14 9 14 14 0 14 -17 10 -23 -5z"/>
<path d="M4025 30 c-3 -5 -1 -10 4 -10 6 0 11 5 11 10 0 6 -2 10 -4 10 -3 0
-8 -4 -11 -10z"/>
<path d="M4155 20 c-10 -11 -13 -20 -8 -20 13 0 38 29 31 35 -3 3 -13 -4 -23
-15z"/>
<path d="M4965 20 c-10 -11 -15 -20 -11 -20 4 0 16 9 28 20 12 11 17 20 11 20
-5 0 -18 -9 -28 -20z"/>
<path d="M834 15 c-10 -8 -14 -15 -8 -15 6 0 17 7 24 15 16 19 9 19 -16 0z"/>
<path d="M3475 10 c-3 -5 -1 -10 4 -10 6 0 11 5 11 10 0 6 -2 10 -4 10 -3 0
-8 -4 -11 -10z"/>
</g>
</svg>
